<svg version="1.0" xmlns="http://www.w3.org/2000/svg" preserveAspectRatio="xMidYMid meet" viewBox="0.14 0.2 959.63 979.8">  <g transform="translate(0.000000,981.000000) scale(0.100000,-0.100000)" fill="#000000" stroke="none"> <path d="M4268 9794 c-37 -8 -89 -24 -115 -35 -136 -57 -65 20 -2047 -2219 -1030 -1163 -1900 -2146 -1934 -2184 -107 -121 -158 -242 -169 -401 -8 -118 15 -233 67 -340 36 -74 175 -234 1945 -2235 1048 -1185 1931 -2179 1963 -2208 104 -98 272 -162 422 -162 278 0 536 193 614 460 55 187 13 410 -105 561 -24 31 -801 912 -1727 1958 -926 1046 -1685 1907 -1688 1914 -3 8 751 867 1709 1950 942 1066 1727 1961 1745 1990 71 118 104 274 85 406 -23 157 -77 265 -189 376 -149 149 -369 214 -576 169z"></path> <path d="M8825 9795 c-90 -18 -215 -82 -282 -143 -29 -26 -912 -1018 -1962 -2206 -1543 -1744 -1917 -2172 -1946 -2227 -98 -186 -100 -414 -6 -604 37 -73 199 -260 1946 -2235 1048 -1185 1930 -2178 1961 -2207 186 -172 469 -210 709 -93 150 73 268 211 321 373 23 69 27 100 27 197 1 100 -3 126 -27 195 -34 99 -78 173 -154 256 -32 35 -802 905 -1711 1932 -962 1088 -1650 1874 -1647 1882 2 7 764 871 1693 1920 928 1049 1705 1930 1727 1959 114 151 154 373 100 556 -59 202 -232 374 -434 434 -78 24 -229 29 -315 11z"></path> </g> </svg>