<svg version="1.0"
    xmlns="http://www.w3.org/2000/svg" preserveAspectRatio="xMidYMid meet" viewBox="1 0.32 374.5 325.54">
    <g transform="translate(0.000000,326.000000) scale(0.100000,-0.100000)" stroke="none">
        <path d="M136 3246 c-47 -18 -94 -61 -112 -103 -11 -26 -14 -153 -14 -682 0 -728 -1 -718 73 -818 20 -26 370 -382 779 -789 l743 -742 85 -40 c101 -48 163 -62 272 -62 98 0 181 20 273 68 62 32 115 81 491 456 418 417 422 422 462 506 51 107 66 184 59 303 -6 104 -31 188 -80 265 -33 53 -1455 1496 -1540 1563 -96 76 -92 76 -812 83 -544 5 -646 4 -679 -8z m1309 -221 c24 -4 180 -155 786 -763 856 -858 804 -795 804 -957 0 -158 7 -148 -458 -613 -468 -466 -455 -457 -617 -457 -168 1 -108 -49 -966 809 l-752 751 -6 220 c-3 121 -6 401 -6 623 l0 404 593 -7 c325 -3 606 -8 622 -10z"></path>
        <path d="M714 2759 c-51 -15 -126 -70 -161 -120 -141 -198 -11 -471 232 -487 219 -13 384 196 319 404 -24 77 -114 172 -188 197 -53 18 -151 21 -202 6z m166 -162 c118 -62 116 -234 -3 -291 -107 -50 -237 33 -237 151 1 81 81 162 161 163 20 0 55 -10 79 -23z"></path>
        <path d="M1804 3142 c76 -77 119 -113 145 -120 28 -9 190 -166 782 -759 853 -855 804 -796 804 -963 0 -159 7 -150 -448 -607 -283 -284 -405 -400 -442 -420 -29 -15 -107 -81 -173 -145 l-121 -116 65 -8 c122 -13 258 23 375 97 91 58 833 802 882 884 63 107 81 174 82 310 0 142 -23 227 -88 328 -27 41 -278 298 -794 811 -670 667 -761 754 -816 781 -59 28 -70 30 -212 33 l-150 4 109 -110z"></path>
    </g>
</svg>